<svg width="67" height="57" viewBox="0 0 67 57" fill="none" xmlns="http://www.w3.org/2000/svg">
<path d="M55.089 11.8008C55.089 5.35589 48.9231 0 41.3459 0C38.3932 0 35.6343 1.07465 33.4927 3.00875C31.351 1.07465 28.592 0 25.6395 0C18.0623 0 11.8964 5.35589 11.8964 11.8008C11.8964 18.2832 17.489 21.6295 23.9657 25.5058C26.6364 27.1039 29.3993 28.7576 32.2062 30.8288L33.4907 31.7778L34.7772 30.8303C37.9503 28.495 40.9682 26.667 43.6293 25.0541C50.0312 21.1778 55.089 18.1152 55.089 11.8008ZM39.3826 16.8105H35.456V20.1504H31.5294V16.8105H27.6028V13.4707H31.5294V10.1309H35.456V13.4707H39.3826V16.8105Z" fill="white"/>
<path d="M64.6438 15.2741C60.6385 15.2741 59.6046 31.105 59.526 31.4391C59.1271 33.7587 57.206 37.1925 53.9616 39.2601L45.4577 44.5118L43.1033 41.8373L51.6072 36.5872C54.9758 34.439 56.5111 30.771 52.301 30.771C48.5304 30.771 41.4823 34.4841 39.3928 35.9571C36.8977 37.7161 35.4559 40.3296 35.4559 43.0861V57H47.2357C47.2357 55.3968 48.2566 53.6489 49.8271 51.979C51.4764 50.1421 53.8324 48.2718 56.2667 46.3681C60.9001 42.6608 65.7037 38.8534 66.3321 34.9793C66.7051 32.3769 67.0149 27.9135 66.9995 23.9355C66.9824 19.4808 66.5387 15.4181 64.6438 15.2741Z" fill="white"/>
<path d="M27.1313 35.6473C21.5947 32.4075 17.3935 30.771 14.6841 30.771C10.474 30.771 12.0093 34.439 15.3779 36.5872L23.8818 41.8373L21.5274 44.5118L13.0236 39.2601C9.77887 37.1925 7.85772 33.7587 7.4589 31.4391C7.38024 31.105 6.34637 15.2741 2.3411 15.2741C0.142201 15.4411 -0.0933952 20.885 0.0245338 26.0952C0.103197 29.9026 0.45646 33.6099 0.65266 34.9793C1.28105 38.8534 6.08459 42.6609 10.718 46.3681C13.1525 48.2718 15.5083 50.1421 17.1576 51.979C18.7281 53.6489 19.749 55.3968 19.749 57H31.5289V43.1528C31.5291 40.2025 29.9008 37.4234 27.1313 35.6473Z" fill="white"/>
</svg>
